{
    "asset" : {
        "generator" : "Khronos glTF Blender I/O v3.3.32",
        "version" : "2.0"
    },
    "scene" : 0,
    "scenes" : [
        {
            "name" : "Scene",
            "nodes" : [
                0
            ]
        }
    ],
    "nodes" : [
        {
            "mesh" : 0,
            "name" : "PinkCoralMany",
            "rotation" : [
                -0.7048074007034302,
                0,
                0,
                0.7093987464904785
            ],
            "scale" : [
                0.5406249761581421,
                0.5406249761581421,
                0.5406249761581421
            ],
            "translation" : [
                6.9532470703125,
                0.07225092500448227,
                4.369470596313477
            ]
        }
    ],
    "animations" : [
        {
            "channels" : [
                {
                    "sampler" : 0,
                    "target" : {
                        "node" : 0,
                        "path" : "translation"
                    }
                },
                {
                    "sampler" : 1,
                    "target" : {
                        "node" : 0,
                        "path" : "rotation"
                    }
                },
                {
                    "sampler" : 2,
                    "target" : {
                        "node" : 0,
                        "path" : "scale"
                    }
                }
            ],
            "name" : "PinkCoralMany",
            "samplers" : [
                {
                    "input" : 4,
                    "interpolation" : "LINEAR",
                    "output" : 5
                },
                {
                    "input" : 4,
                    "interpolation" : "LINEAR",
                    "output" : 6
                },
                {
                    "input" : 4,
                    "interpolation" : "LINEAR",
                    "output" : 7
                }
            ]
        }
    ],
    "materials" : [
        {
            "doubleSided" : true,
            "name" : "Material.003",
            "pbrMetallicRoughness" : {
                "baseColorFactor" : [
                    0.06374058872461319,
                    0.17889048159122467,
                    1,
                    1
                ],
                "metallicFactor" : 0,
                "roughnessFactor" : 0.3272727131843567
            }
        }
    ],
    "meshes" : [
        {
            "name" : "BezierCurve.003",
            "primitives" : [
                {
                    "attributes" : {
                        "POSITION" : 0,
                        "NORMAL" : 1,
                        "TEXCOORD_0" : 2
                    },
                    "indices" : 3,
                    "material" : 0
                }
            ]
        }
    ],
    "accessors" : [
        {
            "bufferView" : 0,
            "componentType" : 5126,
            "count" : 20657,
            "max" : [
                15.33458423614502,
                41.878143310546875,
                3.087825298309326
            ],
            "min" : [
                -30.814626693725586,
                -20.940330505371094,
                -0.850818932056427
            ],
            "type" : "VEC3"
        },
        {
            "bufferView" : 1,
            "componentType" : 5126,
            "count" : 20657,
            "type" : "VEC3"
        },
        {
            "bufferView" : 2,
            "componentType" : 5126,
            "count" : 20657,
            "type" : "VEC2"
        },
        {
            "bufferView" : 3,
            "componentType" : 5123,
            "count" : 118188,
            "type" : "SCALAR"
        },
        {
            "bufferView" : 4,
            "componentType" : 5126,
            "count" : 201,
            "max" : [
                8.333333333333334
            ],
            "min" : [
                0
            ],
            "type" : "SCALAR"
        },
        {
            "bufferView" : 5,
            "componentType" : 5126,
            "count" : 201,
            "type" : "VEC3"
        },
        {
            "bufferView" : 6,
            "componentType" : 5126,
            "count" : 201,
            "type" : "VEC4"
        },
        {
            "bufferView" : 7,
            "componentType" : 5126,
            "count" : 201,
            "type" : "VEC3"
        }
    ],
    "bufferViews" : [
        {
            "buffer" : 0,
            "byteLength" : 247884,
            "byteOffset" : 0,
            "target" : 34962
        },
        {
            "buffer" : 0,
            "byteLength" : 247884,
            "byteOffset" : 247884,
            "target" : 34962
        },
        {
            "buffer" : 0,
            "byteLength" : 165256,
            "byteOffset" : 495768,
            "target" : 34962
        },
        {
            "buffer" : 0,
            "byteLength" : 236376,
            "byteOffset" : 661024,
            "target" : 34963
        },
        {
            "buffer" : 0,
            "byteLength" : 804,
            "byteOffset" : 897400
        },
        {
            "buffer" : 0,
            "byteLength" : 2412,
            "byteOffset" : 898204
        },
        {
            "buffer" : 0,
            "byteLength" : 3216,
            "byteOffset" : 900616
        },
        {
            "buffer" : 0,
            "byteLength" : 2412,
            "byteOffset" : 903832
        }
    ],
    "buffers" : [
        {
            "byteLength" : 906244,
            "uri" : "data:application/octet-stream;base64,"
        }
    ]
}
