{
    "asset" : {
        "generator" : "Khronos glTF Blender I/O v3.3.32",
        "version" : "2.0"
    },
    "scene" : 0,
    "scenes" : [
        {
            "name" : "Scene",
            "nodes" : [
                3,
                4,
                7,
                8
            ]
        }
    ],
    "nodes" : [
        {
            "name" : "BagArm.L",
            "rotation" : [
                -0.09709586203098297,
                0,
                0.018937820568680763,
                0.9950948357582092
            ],
            "translation" : [
                0.347380667924881,
                2.613236665725708,
                1.224055290222168
            ]
        },
        {
            "name" : "BagArm.R",
            "rotation" : [
                0.13537997007369995,
                -0.004492571111768484,
                -0.019637947902083397,
                0.9905889630317688
            ],
            "scale" : [
                1,
                1.0000001192092896,
                1
            ],
            "translation" : [
                -0.347380667924881,
                2.622164011001587,
                -1.0396722555160522
            ]
        },
        {
            "children" : [
                0,
                1
            ],
            "name" : "MainBody"
        },
        {
            "mesh" : 0,
            "name" : "Sphere",
            "skin" : 0
        },
        {
            "children" : [
                2
            ],
            "name" : "Armature",
            "scale" : [
                0.5416062474250793,
                0.5416062474250793,
                0.5416062474250793
            ]
        },
        {
            "name" : "Bone.001",
            "rotation" : [
                -0.0065413182601332664,
                1.4688582303305054e-16,
                1.4692382040166878e-16,
                0.9999786019325256
            ],
            "scale" : [
                1,
                0.9999998211860657,
                0.9999998211860657
            ],
            "translation" : [
                -3.877409121342317e-26,
                1.3211610317230225,
                -1.1641532182693481e-10
            ]
        },
        {
            "children" : [
                5
            ],
            "name" : "Bone",
            "rotation" : [
                -0.00013059057528153062,
                2.8997662940704545e-20,
                2.8992628771195335e-20,
                1
            ],
            "translation" : [
                0,
                0,
                -2.3283064365386963e-10
            ]
        },
        {
            "mesh" : 1,
            "name" : "Cylinder",
            "skin" : 1
        },
        {
            "children" : [
                6
            ],
            "name" : "Armature.001",
            "rotation" : [
                -0.9999998807907104,
                0,
                0,
                0.0005373199819587171
            ],
            "scale" : [
                0.7821484804153442,
                0.782148540019989,
                0.782148540019989
            ],
            "translation" : [
                0,
                1.878945231437683,
                0
            ]
        }
    ],
    "animations" : [
        {
            "channels" : [
                {
                    "sampler" : 0,
                    "target" : {
                        "node" : 2,
                        "path" : "translation"
                    }
                },
                {
                    "sampler" : 1,
                    "target" : {
                        "node" : 2,
                        "path" : "rotation"
                    }
                },
                {
                    "sampler" : 2,
                    "target" : {
                        "node" : 2,
                        "path" : "scale"
                    }
                },
                {
                    "sampler" : 3,
                    "target" : {
                        "node" : 0,
                        "path" : "translation"
                    }
                },
                {
                    "sampler" : 4,
                    "target" : {
                        "node" : 0,
                        "path" : "rotation"
                    }
                },
                {
                    "sampler" : 5,
                    "target" : {
                        "node" : 0,
                        "path" : "scale"
                    }
                },
                {
                    "sampler" : 6,
                    "target" : {
                        "node" : 1,
                        "path" : "translation"
                    }
                },
                {
                    "sampler" : 7,
                    "target" : {
                        "node" : 1,
                        "path" : "rotation"
                    }
                },
                {
                    "sampler" : 8,
                    "target" : {
                        "node" : 1,
                        "path" : "scale"
                    }
                }
            ],
            "name" : "ArmatureAction",
            "samplers" : [
                {
                    "input" : 14,
                    "interpolation" : "LINEAR",
                    "output" : 15
                },
                {
                    "input" : 14,
                    "interpolation" : "LINEAR",
                    "output" : 16
                },
                {
                    "input" : 14,
                    "interpolation" : "LINEAR",
                    "output" : 17
                },
                {
                    "input" : 14,
                    "interpolation" : "LINEAR",
                    "output" : 18
                },
                {
                    "input" : 14,
                    "interpolation" : "LINEAR",
                    "output" : 19
                },
                {
                    "input" : 14,
                    "interpolation" : "LINEAR",
                    "output" : 20
                },
                {
                    "input" : 14,
                    "interpolation" : "LINEAR",
                    "output" : 21
                },
                {
                    "input" : 14,
                    "interpolation" : "LINEAR",
                    "output" : 22
                },
                {
                    "input" : 14,
                    "interpolation" : "LINEAR",
                    "output" : 23
                }
            ]
        },
        {
            "channels" : [
                {
                    "sampler" : 0,
                    "target" : {
                        "node" : 6,
                        "path" : "translation"
                    }
                },
                {
                    "sampler" : 1,
                    "target" : {
                        "node" : 6,
                        "path" : "rotation"
                    }
                },
                {
                    "sampler" : 2,
                    "target" : {
                        "node" : 6,
                        "path" : "scale"
                    }
                },
                {
                    "sampler" : 3,
                    "target" : {
                        "node" : 5,
                        "path" : "translation"
                    }
                },
                {
                    "sampler" : 4,
                    "target" : {
                        "node" : 5,
                        "path" : "rotation"
                    }
                },
                {
                    "sampler" : 5,
                    "target" : {
                        "node" : 5,
                        "path" : "scale"
                    }
                }
            ],
            "name" : "Armature.001Action",
            "samplers" : [
                {
                    "input" : 24,
                    "interpolation" : "LINEAR",
                    "output" : 25
                },
                {
                    "input" : 24,
                    "interpolation" : "LINEAR",
                    "output" : 26
                },
                {
                    "input" : 24,
                    "interpolation" : "LINEAR",
                    "output" : 27
                },
                {
                    "input" : 24,
                    "interpolation" : "LINEAR",
                    "output" : 28
                },
                {
                    "input" : 24,
                    "interpolation" : "LINEAR",
                    "output" : 29
                },
                {
                    "input" : 24,
                    "interpolation" : "LINEAR",
                    "output" : 30
                }
            ]
        }
    ],
    "materials" : [
        {
            "doubleSided" : true,
            "name" : "Bag",
            "pbrMetallicRoughness" : {}
        },
        {
            "doubleSided" : true,
            "name" : "Material",
            "pbrMetallicRoughness" : {}
        }
    ],
    "meshes" : [
        {
            "name" : "Sphere",
            "primitives" : [
                {
                    "attributes" : {
                        "POSITION" : 0,
                        "NORMAL" : 1,
                        "TEXCOORD_0" : 2,
                        "JOINTS_0" : 3,
                        "WEIGHTS_0" : 4
                    },
                    "indices" : 5,
                    "material" : 0
                }
            ]
        },
        {
            "name" : "Cylinder",
            "primitives" : [
                {
                    "attributes" : {
                        "POSITION" : 7,
                        "NORMAL" : 8,
                        "TEXCOORD_0" : 9,
                        "JOINTS_0" : 10,
                        "WEIGHTS_0" : 11
                    },
                    "indices" : 12,
                    "material" : 1
                }
            ]
        }
    ],
    "skins" : [
        {
            "inverseBindMatrices" : 6,
            "joints" : [
                2,
                0,
                1
            ],
            "name" : "Armature"
        },
        {
            "inverseBindMatrices" : 13,
            "joints" : [
                6,
                5
            ],
            "name" : "Armature.001"
        }
    ],
    "accessors" : [
        {
            "bufferView" : 0,
            "componentType" : 5126,
            "count" : 3538,
            "max" : [
                0.7447519898414612,
                2.089393377304077,
                0.7464972138404846
            ],
            "min" : [
                -0.5924739837646484,
                -0.006358504295349121,
                -0.6383552551269531
            ],
            "type" : "VEC3"
        },
        {
            "bufferView" : 1,
            "componentType" : 5126,
            "count" : 3538,
            "type" : "VEC3"
        },
        {
            "bufferView" : 2,
            "componentType" : 5126,
            "count" : 3538,
            "type" : "VEC2"
        },
        {
            "bufferView" : 3,
            "componentType" : 5121,
            "count" : 3538,
            "type" : "VEC4"
        },
        {
            "bufferView" : 4,
            "componentType" : 5126,
            "count" : 3538,
            "type" : "VEC4"
        },
        {
            "bufferView" : 5,
            "componentType" : 5123,
            "count" : 19104,
            "type" : "SCALAR"
        },
        {
            "bufferView" : 6,
            "componentType" : 5126,
            "count" : 3,
            "type" : "MAT4"
        },
        {
            "bufferView" : 7,
            "componentType" : 5126,
            "count" : 532,
            "max" : [
                0.4567556381225586,
                1.9959650039672852,
                0.3908348083496094
            ],
            "min" : [
                -0.4567555785179138,
                -0.008143831044435501,
                -0.3908348083496094
            ],
            "type" : "VEC3"
        },
        {
            "bufferView" : 8,
            "componentType" : 5126,
            "count" : 532,
            "type" : "VEC3"
        },
        {
            "bufferView" : 9,
            "componentType" : 5126,
            "count" : 532,
            "type" : "VEC2"
        },
        {
            "bufferView" : 10,
            "componentType" : 5121,
            "count" : 532,
            "type" : "VEC4"
        },
        {
            "bufferView" : 11,
            "componentType" : 5126,
            "count" : 532,
            "type" : "VEC4"
        },
        {
            "bufferView" : 12,
            "componentType" : 5123,
            "count" : 2496,
            "type" : "SCALAR"
        },
        {
            "bufferView" : 13,
            "componentType" : 5126,
            "count" : 2,
            "type" : "MAT4"
        },
        {
            "bufferView" : 14,
            "componentType" : 5126,
            "count" : 161,
            "max" : [
                6.666666666666667
            ],
            "min" : [
                0
            ],
            "type" : "SCALAR"
        },
        {
            "bufferView" : 15,
            "componentType" : 5126,
            "count" : 161,
            "type" : "VEC3"
        },
        {
            "bufferView" : 16,
            "componentType" : 5126,
            "count" : 161,
            "type" : "VEC4"
        },
        {
            "bufferView" : 17,
            "componentType" : 5126,
            "count" : 161,
            "type" : "VEC3"
        },
        {
            "bufferView" : 18,
            "componentType" : 5126,
            "count" : 161,
            "type" : "VEC3"
        },
        {
            "bufferView" : 19,
            "componentType" : 5126,
            "count" : 161,
            "type" : "VEC4"
        },
        {
            "bufferView" : 20,
            "componentType" : 5126,
            "count" : 161,
            "type" : "VEC3"
        },
        {
            "bufferView" : 21,
            "componentType" : 5126,
            "count" : 161,
            "type" : "VEC3"
        },
        {
            "bufferView" : 22,
            "componentType" : 5126,
            "count" : 161,
            "type" : "VEC4"
        },
        {
            "bufferView" : 23,
            "componentType" : 5126,
            "count" : 161,
            "type" : "VEC3"
        },
        {
            "bufferView" : 24,
            "componentType" : 5126,
            "count" : 201,
            "max" : [
                8.333333333333334
            ],
            "min" : [
                0
            ],
            "type" : "SCALAR"
        },
        {
            "bufferView" : 25,
            "componentType" : 5126,
            "count" : 201,
            "type" : "VEC3"
        },
        {
            "bufferView" : 26,
            "componentType" : 5126,
            "count" : 201,
            "type" : "VEC4"
        },
        {
            "bufferView" : 27,
            "componentType" : 5126,
            "count" : 201,
            "type" : "VEC3"
        },
        {
            "bufferView" : 28,
            "componentType" : 5126,
            "count" : 201,
            "type" : "VEC3"
        },
        {
            "bufferView" : 29,
            "componentType" : 5126,
            "count" : 201,
            "type" : "VEC4"
        },
        {
            "bufferView" : 30,
            "componentType" : 5126,
            "count" : 201,
            "type" : "VEC3"
        }
    ],
    "bufferViews" : [
        {
            "buffer" : 0,
            "byteLength" : 42456,
            "byteOffset" : 0,
            "target" : 34962
        },
        {
            "buffer" : 0,
            "byteLength" : 42456,
            "byteOffset" : 42456,
            "target" : 34962
        },
        {
            "buffer" : 0,
            "byteLength" : 28304,
            "byteOffset" : 84912,
            "target" : 34962
        },
        {
            "buffer" : 0,
            "byteLength" : 14152,
            "byteOffset" : 113216,
            "target" : 34962
        },
        {
            "buffer" : 0,
            "byteLength" : 56608,
            "byteOffset" : 127368,
            "target" : 34962
        },
        {
            "buffer" : 0,
            "byteLength" : 38208,
            "byteOffset" : 183976,
            "target" : 34963
        },
        {
            "buffer" : 0,
            "byteLength" : 192,
            "byteOffset" : 222184
        },
        {
            "buffer" : 0,
            "byteLength" : 6384,
            "byteOffset" : 222376,
            "target" : 34962
        },
        {
            "buffer" : 0,
            "byteLength" : 6384,
            "byteOffset" : 228760,
            "target" : 34962
        },
        {
            "buffer" : 0,
            "byteLength" : 4256,
            "byteOffset" : 235144,
            "target" : 34962
        },
        {
            "buffer" : 0,
            "byteLength" : 2128,
            "byteOffset" : 239400,
            "target" : 34962
        },
        {
            "buffer" : 0,
            "byteLength" : 8512,
            "byteOffset" : 241528,
            "target" : 34962
        },
        {
            "buffer" : 0,
            "byteLength" : 4992,
            "byteOffset" : 250040,
            "target" : 34963
        },
        {
            "buffer" : 0,
            "byteLength" : 128,
            "byteOffset" : 255032
        },
        {
            "buffer" : 0,
            "byteLength" : 644,
            "byteOffset" : 255160
        },
        {
            "buffer" : 0,
            "byteLength" : 1932,
            "byteOffset" : 255804
        },
        {
            "buffer" : 0,
            "byteLength" : 2576,
            "byteOffset" : 257736
        },
        {
            "buffer" : 0,
            "byteLength" : 1932,
            "byteOffset" : 260312
        },
        {
            "buffer" : 0,
            "byteLength" : 1932,
            "byteOffset" : 262244
        },
        {
            "buffer" : 0,
            "byteLength" : 2576,
            "byteOffset" : 264176
        },
        {
            "buffer" : 0,
            "byteLength" : 1932,
            "byteOffset" : 266752
        },
        {
            "buffer" : 0,
            "byteLength" : 1932,
            "byteOffset" : 268684
        },
        {
            "buffer" : 0,
            "byteLength" : 2576,
            "byteOffset" : 270616
        },
        {
            "buffer" : 0,
            "byteLength" : 1932,
            "byteOffset" : 273192
        },
        {
            "buffer" : 0,
            "byteLength" : 804,
            "byteOffset" : 275124
        },
        {
            "buffer" : 0,
            "byteLength" : 2412,
            "byteOffset" : 275928
        },
        {
            "buffer" : 0,
            "byteLength" : 3216,
            "byteOffset" : 278340
        },
        {
            "buffer" : 0,
            "byteLength" : 2412,
            "byteOffset" : 281556
        },
        {
            "buffer" : 0,
            "byteLength" : 2412,
            "byteOffset" : 283968
        },
        {
            "buffer" : 0,
            "byteLength" : 3216,
            "byteOffset" : 286380
        },
        {
            "buffer" : 0,
            "byteLength" : 2412,
            "byteOffset" : 289596
        }
    ],
    "buffers" : [
        {
            "byteLength" : 292008,
            "uri" : "data:application/octet-stream;base64,"
        }
    ]
}
