{
    "asset" : {
        "generator" : "Khronos glTF Blender I/O v3.3.32",
        "version" : "2.0"
    },
    "extensionsUsed" : [
        "KHR_materials_specular",
        "KHR_materials_ior"
    ],
    "scene" : 0,
    "scenes" : [
        {
            "name" : "Scene",
            "nodes" : [
                6,
                7
            ]
        }
    ],
    "nodes" : [
        {
            "name" : "Bone.004",
            "rotation" : [
                0.10379745066165924,
                -0.0038791177794337273,
                -0.03250673785805702,
                0.9940596222877502
            ],
            "scale" : [
                0.9999999403953552,
                1,
                1
            ],
            "translation" : [
                8.800998330116272e-08,
                0.8639194965362549,
                9.406358003616333e-08
            ]
        },
        {
            "children" : [
                0
            ],
            "name" : "Bone.003",
            "rotation" : [
                -0.038936663419008255,
                0.002845822600647807,
                0.019871803000569344,
                0.9990401268005371
            ],
            "scale" : [
                1,
                1,
                1.0000001192092896
            ],
            "translation" : [
                -5.4016709327697754e-08,
                0.8061391115188599,
                4.470348358154297e-08
            ]
        },
        {
            "children" : [
                1
            ],
            "name" : "Bone.002",
            "rotation" : [
                -0.15593783557415009,
                -0.0032147078309208155,
                -0.026502247899770737,
                0.9874060750007629
            ],
            "scale" : [
                0.9999998807907104,
                1,
                0.9999999403953552
            ],
            "translation" : [
                5.21540641784668e-08,
                0.7323855757713318,
                1.30385160446167e-07
            ]
        },
        {
            "children" : [
                2
            ],
            "name" : "Bone.001",
            "rotation" : [
                -0.1341044306755066,
                -0.013944069854915142,
                -0.06621527671813965,
                0.9886541962623596
            ],
            "scale" : [
                0.9999999403953552,
                1,
                0.9999999403953552
            ],
            "translation" : [
                6.495974957942963e-08,
                1.0460690259933472,
                -1.3923272490501404e-07
            ]
        },
        {
            "children" : [
                3
            ],
            "name" : "Bone",
            "rotation" : [
                -7.450580596923828e-09,
                3.725290298461914e-09,
                1.862645149230957e-09,
                1
            ],
            "translation" : [
                -1.168243646621704,
                -1.001739501953125,
                0.6210799813270569
            ]
        },
        {
            "children" : [
                4
            ],
            "name" : "Bone.005",
            "rotation" : [
                -0.018997784703969955,
                -0.00016229209722951055,
                -0.01672346703708172,
                0.9996797442436218
            ],
            "scale" : [
                1.0000001192092896,
                1,
                0.9999999403953552
            ],
            "translation" : [
                1.1848777532577515,
                0.8844054937362671,
                -0.6223537921905518
            ]
        },
        {
            "children" : [
                5
            ],
            "name" : "Armature.002",
            "rotation" : [
                -0.7592300176620483,
                -0.5334506630897522,
                0.3560854494571686,
                0.11046899855136871
            ],
            "scale" : [
                0.7120366096496582,
                0.7120366096496582,
                0.7120366096496582
            ],
            "translation" : [
                -1.8706138134002686,
                0.43090158700942993,
                0.3843873143196106
            ]
        },
        {
            "mesh" : 0,
            "name" : "Cube",
            "skin" : 0
        }
    ],
    "animations" : [
        {
            "channels" : [
                {
                    "sampler" : 0,
                    "target" : {
                        "node" : 5,
                        "path" : "translation"
                    }
                },
                {
                    "sampler" : 1,
                    "target" : {
                        "node" : 5,
                        "path" : "rotation"
                    }
                },
                {
                    "sampler" : 2,
                    "target" : {
                        "node" : 5,
                        "path" : "scale"
                    }
                },
                {
                    "sampler" : 3,
                    "target" : {
                        "node" : 4,
                        "path" : "translation"
                    }
                },
                {
                    "sampler" : 4,
                    "target" : {
                        "node" : 4,
                        "path" : "rotation"
                    }
                },
                {
                    "sampler" : 5,
                    "target" : {
                        "node" : 4,
                        "path" : "scale"
                    }
                },
                {
                    "sampler" : 6,
                    "target" : {
                        "node" : 3,
                        "path" : "translation"
                    }
                },
                {
                    "sampler" : 7,
                    "target" : {
                        "node" : 3,
                        "path" : "rotation"
                    }
                },
                {
                    "sampler" : 8,
                    "target" : {
                        "node" : 3,
                        "path" : "scale"
                    }
                },
                {
                    "sampler" : 9,
                    "target" : {
                        "node" : 2,
                        "path" : "translation"
                    }
                },
                {
                    "sampler" : 10,
                    "target" : {
                        "node" : 2,
                        "path" : "rotation"
                    }
                },
                {
                    "sampler" : 11,
                    "target" : {
                        "node" : 2,
                        "path" : "scale"
                    }
                },
                {
                    "sampler" : 12,
                    "target" : {
                        "node" : 1,
                        "path" : "translation"
                    }
                },
                {
                    "sampler" : 13,
                    "target" : {
                        "node" : 1,
                        "path" : "rotation"
                    }
                },
                {
                    "sampler" : 14,
                    "target" : {
                        "node" : 1,
                        "path" : "scale"
                    }
                },
                {
                    "sampler" : 15,
                    "target" : {
                        "node" : 0,
                        "path" : "translation"
                    }
                },
                {
                    "sampler" : 16,
                    "target" : {
                        "node" : 0,
                        "path" : "rotation"
                    }
                },
                {
                    "sampler" : 17,
                    "target" : {
                        "node" : 0,
                        "path" : "scale"
                    }
                },
                {
                    "sampler" : 18,
                    "target" : {
                        "node" : 6,
                        "path" : "translation"
                    }
                },
                {
                    "sampler" : 19,
                    "target" : {
                        "node" : 6,
                        "path" : "rotation"
                    }
                }
            ],
            "name" : "Armature.002Action",
            "samplers" : [
                {
                    "input" : 8,
                    "interpolation" : "LINEAR",
                    "output" : 9
                },
                {
                    "input" : 8,
                    "interpolation" : "LINEAR",
                    "output" : 10
                },
                {
                    "input" : 8,
                    "interpolation" : "LINEAR",
                    "output" : 11
                },
                {
                    "input" : 8,
                    "interpolation" : "LINEAR",
                    "output" : 12
                },
                {
                    "input" : 8,
                    "interpolation" : "LINEAR",
                    "output" : 13
                },
                {
                    "input" : 8,
                    "interpolation" : "LINEAR",
                    "output" : 14
                },
                {
                    "input" : 8,
                    "interpolation" : "LINEAR",
                    "output" : 15
                },
                {
                    "input" : 8,
                    "interpolation" : "LINEAR",
                    "output" : 16
                },
                {
                    "input" : 8,
                    "interpolation" : "LINEAR",
                    "output" : 17
                },
                {
                    "input" : 8,
                    "interpolation" : "LINEAR",
                    "output" : 18
                },
                {
                    "input" : 8,
                    "interpolation" : "LINEAR",
                    "output" : 19
                },
                {
                    "input" : 8,
                    "interpolation" : "LINEAR",
                    "output" : 20
                },
                {
                    "input" : 8,
                    "interpolation" : "LINEAR",
                    "output" : 21
                },
                {
                    "input" : 8,
                    "interpolation" : "LINEAR",
                    "output" : 22
                },
                {
                    "input" : 8,
                    "interpolation" : "LINEAR",
                    "output" : 23
                },
                {
                    "input" : 8,
                    "interpolation" : "LINEAR",
                    "output" : 24
                },
                {
                    "input" : 8,
                    "interpolation" : "LINEAR",
                    "output" : 25
                },
                {
                    "input" : 8,
                    "interpolation" : "LINEAR",
                    "output" : 26
                },
                {
                    "input" : 27,
                    "interpolation" : "LINEAR",
                    "output" : 28
                },
                {
                    "input" : 27,
                    "interpolation" : "LINEAR",
                    "output" : 29
                }
            ]
        },
        {
            "channels" : [
                {
                    "sampler" : 0,
                    "target" : {
                        "node" : 7,
                        "path" : "translation"
                    }
                },
                {
                    "sampler" : 1,
                    "target" : {
                        "node" : 7,
                        "path" : "rotation"
                    }
                }
            ],
            "name" : "CubeAction",
            "samplers" : [
                {
                    "input" : 30,
                    "interpolation" : "LINEAR",
                    "output" : 31
                },
                {
                    "input" : 30,
                    "interpolation" : "LINEAR",
                    "output" : 32
                }
            ]
        }
    ],
    "materials" : [
        {
            "doubleSided" : true,
            "extensions" : {
                "KHR_materials_specular" : {
                    "specularColorFactor" : [
                        2.371357614441398,
                        2.371357614441398,
                        2.371357614441398
                    ]
                },
                "KHR_materials_ior" : {
                    "ior" : 1.4500000476837158
                }
            },
            "name" : "Material.001",
            "pbrMetallicRoughness" : {
                "baseColorTexture" : {
                    "index" : 0
                },
                "metallicFactor" : 0,
                "roughnessFactor" : 0.6727272272109985
            }
        }
    ],
    "meshes" : [
        {
            "name" : "Cube",
            "primitives" : [
                {
                    "attributes" : {
                        "POSITION" : 0,
                        "NORMAL" : 1,
                        "TEXCOORD_0" : 2,
                        "COLOR_0" : 3,
                        "JOINTS_0" : 4,
                        "WEIGHTS_0" : 5
                    },
                    "indices" : 6,
                    "material" : 0
                }
            ]
        }
    ],
    "textures" : [
        {
            "sampler" : 0,
            "source" : 0
        }
    ],
    "images" : [
        {
            "bufferView" : 7,
            "mimeType" : "image/png",
            "name" : "Ribbon"
        }
    ],
    "skins" : [
        {
            "inverseBindMatrices" : 7,
            "joints" : [
                5,
                4,
                3,
                2,
                1,
                0
            ],
            "name" : "Armature.002"
        }
    ],
    "accessors" : [
        {
            "bufferView" : 0,
            "componentType" : 5126,
            "count" : 2500,
            "max" : [
                0.9182664155960083,
                0.8399795293807983,
                0.6192011833190918
            ],
            "min" : [
                -2.3366005420684814,
                -0.32966315746307373,
                -0.47161081433296204
            ],
            "type" : "VEC3"
        },
        {
            "bufferView" : 1,
            "componentType" : 5126,
            "count" : 2500,
            "type" : "VEC3"
        },
        {
            "bufferView" : 2,
            "componentType" : 5126,
            "count" : 2500,
            "type" : "VEC2"
        },
        {
            "bufferView" : 3,
            "componentType" : 5123,
            "count" : 2500,
            "normalized" : true,
            "type" : "VEC4"
        },
        {
            "bufferView" : 4,
            "componentType" : 5121,
            "count" : 2500,
            "type" : "VEC4"
        },
        {
            "bufferView" : 5,
            "componentType" : 5126,
            "count" : 2500,
            "type" : "VEC4"
        },
        {
            "bufferView" : 6,
            "componentType" : 5123,
            "count" : 12768,
            "type" : "SCALAR"
        },
        {
            "bufferView" : 8,
            "componentType" : 5126,
            "count" : 6,
            "type" : "MAT4"
        },
        {
            "bufferView" : 9,
            "componentType" : 5126,
            "count" : 148,
            "max" : [
                6.125
            ],
            "min" : [
                0
            ],
            "type" : "SCALAR"
        },
        {
            "bufferView" : 10,
            "componentType" : 5126,
            "count" : 148,
            "type" : "VEC3"
        },
        {
            "bufferView" : 11,
            "componentType" : 5126,
            "count" : 148,
            "type" : "VEC4"
        },
        {
            "bufferView" : 12,
            "componentType" : 5126,
            "count" : 148,
            "type" : "VEC3"
        },
        {
            "bufferView" : 13,
            "componentType" : 5126,
            "count" : 148,
            "type" : "VEC3"
        },
        {
            "bufferView" : 14,
            "componentType" : 5126,
            "count" : 148,
            "type" : "VEC4"
        },
        {
            "bufferView" : 15,
            "componentType" : 5126,
            "count" : 148,
            "type" : "VEC3"
        },
        {
            "bufferView" : 16,
            "componentType" : 5126,
            "count" : 148,
            "type" : "VEC3"
        },
        {
            "bufferView" : 17,
            "componentType" : 5126,
            "count" : 148,
            "type" : "VEC4"
        },
        {
            "bufferView" : 18,
            "componentType" : 5126,
            "count" : 148,
            "type" : "VEC3"
        },
        {
            "bufferView" : 19,
            "componentType" : 5126,
            "count" : 148,
            "type" : "VEC3"
        },
        {
            "bufferView" : 20,
            "componentType" : 5126,
            "count" : 148,
            "type" : "VEC4"
        },
        {
            "bufferView" : 21,
            "componentType" : 5126,
            "count" : 148,
            "type" : "VEC3"
        },
        {
            "bufferView" : 22,
            "componentType" : 5126,
            "count" : 148,
            "type" : "VEC3"
        },
        {
            "bufferView" : 23,
            "componentType" : 5126,
            "count" : 148,
            "type" : "VEC4"
        },
        {
            "bufferView" : 24,
            "componentType" : 5126,
            "count" : 148,
            "type" : "VEC3"
        },
        {
            "bufferView" : 25,
            "componentType" : 5126,
            "count" : 148,
            "type" : "VEC3"
        },
        {
            "bufferView" : 26,
            "componentType" : 5126,
            "count" : 148,
            "type" : "VEC4"
        },
        {
            "bufferView" : 27,
            "componentType" : 5126,
            "count" : 148,
            "type" : "VEC3"
        },
        {
            "bufferView" : 28,
            "componentType" : 5126,
            "count" : 119,
            "max" : [
                5.5
            ],
            "min" : [
                0.5833333333333334
            ],
            "type" : "SCALAR"
        },
        {
            "bufferView" : 29,
            "componentType" : 5126,
            "count" : 119,
            "type" : "VEC3"
        },
        {
            "bufferView" : 30,
            "componentType" : 5126,
            "count" : 119,
            "type" : "VEC4"
        },
        {
            "bufferView" : 31,
            "componentType" : 5126,
            "count" : 147,
            "max" : [
                6.125
            ],
            "min" : [
                0.041666666666666664
            ],
            "type" : "SCALAR"
        },
        {
            "bufferView" : 32,
            "componentType" : 5126,
            "count" : 147,
            "type" : "VEC3"
        },
        {
            "bufferView" : 33,
            "componentType" : 5126,
            "count" : 147,
            "type" : "VEC4"
        }
    ],
    "bufferViews" : [
        {
            "buffer" : 0,
            "byteLength" : 30000,
            "byteOffset" : 0,
            "target" : 34962
        },
        {
            "buffer" : 0,
            "byteLength" : 30000,
            "byteOffset" : 30000,
            "target" : 34962
        },
        {
            "buffer" : 0,
            "byteLength" : 20000,
            "byteOffset" : 60000,
            "target" : 34962
        },
        {
            "buffer" : 0,
            "byteLength" : 20000,
            "byteOffset" : 80000,
            "target" : 34962
        },
        {
            "buffer" : 0,
            "byteLength" : 10000,
            "byteOffset" : 100000,
            "target" : 34962
        },
        {
            "buffer" : 0,
            "byteLength" : 40000,
            "byteOffset" : 110000,
            "target" : 34962
        },
        {
            "buffer" : 0,
            "byteLength" : 25536,
            "byteOffset" : 150000,
            "target" : 34963
        },
        {
            "buffer" : 0,
            "byteLength" : 154137,
            "byteOffset" : 175536
        },
        {
            "buffer" : 0,
            "byteLength" : 384,
            "byteOffset" : 329676
        },
        {
            "buffer" : 0,
            "byteLength" : 592,
            "byteOffset" : 330060
        },
        {
            "buffer" : 0,
            "byteLength" : 1776,
            "byteOffset" : 330652
        },
        {
            "buffer" : 0,
            "byteLength" : 2368,
            "byteOffset" : 332428
        },
        {
            "buffer" : 0,
            "byteLength" : 1776,
            "byteOffset" : 334796
        },
        {
            "buffer" : 0,
            "byteLength" : 1776,
            "byteOffset" : 336572
        },
        {
            "buffer" : 0,
            "byteLength" : 2368,
            "byteOffset" : 338348
        },
        {
            "buffer" : 0,
            "byteLength" : 1776,
            "byteOffset" : 340716
        },
        {
            "buffer" : 0,
            "byteLength" : 1776,
            "byteOffset" : 342492
        },
        {
            "buffer" : 0,
            "byteLength" : 2368,
            "byteOffset" : 344268
        },
        {
            "buffer" : 0,
            "byteLength" : 1776,
            "byteOffset" : 346636
        },
        {
            "buffer" : 0,
            "byteLength" : 1776,
            "byteOffset" : 348412
        },
        {
            "buffer" : 0,
            "byteLength" : 2368,
            "byteOffset" : 350188
        },
        {
            "buffer" : 0,
            "byteLength" : 1776,
            "byteOffset" : 352556
        },
        {
            "buffer" : 0,
            "byteLength" : 1776,
            "byteOffset" : 354332
        },
        {
            "buffer" : 0,
            "byteLength" : 2368,
            "byteOffset" : 356108
        },
        {
            "buffer" : 0,
            "byteLength" : 1776,
            "byteOffset" : 358476
        },
        {
            "buffer" : 0,
            "byteLength" : 1776,
            "byteOffset" : 360252
        },
        {
            "buffer" : 0,
            "byteLength" : 2368,
            "byteOffset" : 362028
        },
        {
            "buffer" : 0,
            "byteLength" : 1776,
            "byteOffset" : 364396
        },
        {
            "buffer" : 0,
            "byteLength" : 476,
            "byteOffset" : 366172
        },
        {
            "buffer" : 0,
            "byteLength" : 1428,
            "byteOffset" : 366648
        },
        {
            "buffer" : 0,
            "byteLength" : 1904,
            "byteOffset" : 368076
        },
        {
            "buffer" : 0,
            "byteLength" : 588,
            "byteOffset" : 369980
        },
        {
            "buffer" : 0,
            "byteLength" : 1764,
            "byteOffset" : 370568
        },
        {
            "buffer" : 0,
            "byteLength" : 2352,
            "byteOffset" : 372332
        }
    ],
    "samplers" : [
        {
            "magFilter" : 9729,
            "minFilter" : 9987
        }
    ],
    "buffers" : [
        {
            "byteLength" : 374684,
            "uri" : "data:application/octet-stream;base64,"
        }
    ]
}
