{
    "asset" : {
        "generator" : "Khronos glTF Blender I/O v3.3.32",
        "version" : "2.0"
    },
    "extensionsUsed" : [
        "KHR_materials_specular",
        "KHR_materials_ior"
    ],
    "scene" : 0,
    "scenes" : [
        {
            "name" : "Scene",
            "nodes" : [
                6,
                7
            ]
        }
    ],
    "nodes" : [
        {
            "name" : "Bone.004",
            "rotation" : [
                0.10379744321107864,
                -0.003879102412611246,
                -0.03250672668218613,
                0.9940595626831055
            ],
            "scale" : [
                0.9999999403953552,
                1,
                1.0000001192092896
            ],
            "translation" : [
                3.725290298461914e-08,
                0.8639195561408997,
                1.1362135410308838e-07
            ]
        },
        {
            "children" : [
                0
            ],
            "name" : "Bone.003",
            "rotation" : [
                -0.03893667086958885,
                0.0028458309825509787,
                0.019871799275279045,
                0.9990401268005371
            ],
            "scale" : [
                1,
                1,
                1.000000238418579
            ],
            "translation" : [
                -1.6530975699424744e-08,
                0.8061392307281494,
                1.6298145055770874e-08
            ]
        },
        {
            "children" : [
                1
            ],
            "name" : "Bone.002",
            "rotation" : [
                -0.15593783557415009,
                -0.003214718773961067,
                -0.026502247899770737,
                0.9874060750007629
            ],
            "scale" : [
                0.9999999403953552,
                0.9999998807907104,
                0.9999999403953552
            ],
            "translation" : [
                3.632158041000366e-08,
                0.7323854565620422,
                -7.450580596923828e-09
            ]
        },
        {
            "children" : [
                2
            ],
            "name" : "Bone.001",
            "rotation" : [
                -0.1341044306755066,
                -0.01394406147301197,
                -0.06621527671813965,
                0.9886541962623596
            ],
            "scale" : [
                0.9999998807907104,
                0.9999999403953552,
                0.9999998211860657
            ],
            "translation" : [
                -3.166496753692627e-08,
                1.0460692644119263,
                4.470348358154297e-08
            ]
        },
        {
            "children" : [
                3
            ],
            "name" : "Bone",
            "rotation" : [
                -1.6763809895792292e-08,
                1.1175870895385742e-08,
                -3.725290742551124e-09,
                1
            ],
            "scale" : [
                1,
                0.9999999403953552,
                0.9999999403953552
            ],
            "translation" : [
                -1.168243646621704,
                -1.0017390251159668,
                0.6210799813270569
            ]
        },
        {
            "children" : [
                4
            ],
            "name" : "Bone.005",
            "rotation" : [
                -0.018997788429260254,
                -0.00016229211178142577,
                -0.016723481938242912,
                0.9996797442436218
            ],
            "scale" : [
                1,
                0.9999998807907104,
                0.9999998211860657
            ],
            "translation" : [
                1.184877634048462,
                0.8844051957130432,
                -0.622353732585907
            ]
        },
        {
            "children" : [
                5
            ],
            "name" : "Armature.002",
            "rotation" : [
                -0.7881377339363098,
                -0.5412152409553528,
                0.2864714562892914,
                0.0621214359998703
            ],
            "scale" : [
                0.7120366096496582,
                0.7120366096496582,
                0.7120366096496582
            ],
            "translation" : [
                -1.8967405557632446,
                0.43090152740478516,
                0.34717124700546265
            ]
        },
        {
            "mesh" : 0,
            "name" : "Cube",
            "skin" : 0
        }
    ],
    "animations" : [
        {
            "channels" : [
                {
                    "sampler" : 0,
                    "target" : {
                        "node" : 5,
                        "path" : "translation"
                    }
                },
                {
                    "sampler" : 1,
                    "target" : {
                        "node" : 5,
                        "path" : "rotation"
                    }
                },
                {
                    "sampler" : 2,
                    "target" : {
                        "node" : 5,
                        "path" : "scale"
                    }
                },
                {
                    "sampler" : 3,
                    "target" : {
                        "node" : 4,
                        "path" : "translation"
                    }
                },
                {
                    "sampler" : 4,
                    "target" : {
                        "node" : 4,
                        "path" : "rotation"
                    }
                },
                {
                    "sampler" : 5,
                    "target" : {
                        "node" : 4,
                        "path" : "scale"
                    }
                },
                {
                    "sampler" : 6,
                    "target" : {
                        "node" : 3,
                        "path" : "translation"
                    }
                },
                {
                    "sampler" : 7,
                    "target" : {
                        "node" : 3,
                        "path" : "rotation"
                    }
                },
                {
                    "sampler" : 8,
                    "target" : {
                        "node" : 3,
                        "path" : "scale"
                    }
                },
                {
                    "sampler" : 9,
                    "target" : {
                        "node" : 2,
                        "path" : "translation"
                    }
                },
                {
                    "sampler" : 10,
                    "target" : {
                        "node" : 2,
                        "path" : "rotation"
                    }
                },
                {
                    "sampler" : 11,
                    "target" : {
                        "node" : 2,
                        "path" : "scale"
                    }
                },
                {
                    "sampler" : 12,
                    "target" : {
                        "node" : 1,
                        "path" : "translation"
                    }
                },
                {
                    "sampler" : 13,
                    "target" : {
                        "node" : 1,
                        "path" : "rotation"
                    }
                },
                {
                    "sampler" : 14,
                    "target" : {
                        "node" : 1,
                        "path" : "scale"
                    }
                },
                {
                    "sampler" : 15,
                    "target" : {
                        "node" : 0,
                        "path" : "translation"
                    }
                },
                {
                    "sampler" : 16,
                    "target" : {
                        "node" : 0,
                        "path" : "rotation"
                    }
                },
                {
                    "sampler" : 17,
                    "target" : {
                        "node" : 0,
                        "path" : "scale"
                    }
                }
            ],
            "name" : "Armature.002Action",
            "samplers" : [
                {
                    "input" : 8,
                    "interpolation" : "LINEAR",
                    "output" : 9
                },
                {
                    "input" : 8,
                    "interpolation" : "LINEAR",
                    "output" : 10
                },
                {
                    "input" : 8,
                    "interpolation" : "LINEAR",
                    "output" : 11
                },
                {
                    "input" : 8,
                    "interpolation" : "LINEAR",
                    "output" : 12
                },
                {
                    "input" : 8,
                    "interpolation" : "LINEAR",
                    "output" : 13
                },
                {
                    "input" : 8,
                    "interpolation" : "LINEAR",
                    "output" : 14
                },
                {
                    "input" : 8,
                    "interpolation" : "LINEAR",
                    "output" : 15
                },
                {
                    "input" : 8,
                    "interpolation" : "LINEAR",
                    "output" : 16
                },
                {
                    "input" : 8,
                    "interpolation" : "LINEAR",
                    "output" : 17
                },
                {
                    "input" : 8,
                    "interpolation" : "LINEAR",
                    "output" : 18
                },
                {
                    "input" : 8,
                    "interpolation" : "LINEAR",
                    "output" : 19
                },
                {
                    "input" : 8,
                    "interpolation" : "LINEAR",
                    "output" : 20
                },
                {
                    "input" : 8,
                    "interpolation" : "LINEAR",
                    "output" : 21
                },
                {
                    "input" : 8,
                    "interpolation" : "LINEAR",
                    "output" : 22
                },
                {
                    "input" : 8,
                    "interpolation" : "LINEAR",
                    "output" : 23
                },
                {
                    "input" : 8,
                    "interpolation" : "LINEAR",
                    "output" : 24
                },
                {
                    "input" : 8,
                    "interpolation" : "LINEAR",
                    "output" : 25
                },
                {
                    "input" : 8,
                    "interpolation" : "LINEAR",
                    "output" : 26
                }
            ]
        }
    ],
    "materials" : [
        {
            "doubleSided" : true,
            "extensions" : {
                "KHR_materials_specular" : {
                    "specularColorFactor" : [
                        2.371357614441398,
                        2.371357614441398,
                        2.371357614441398
                    ]
                },
                "KHR_materials_ior" : {
                    "ior" : 1.4500000476837158
                }
            },
            "name" : "Material.001",
            "pbrMetallicRoughness" : {
                "baseColorTexture" : {
                    "index" : 0
                },
                "metallicFactor" : 0
            }
        }
    ],
    "meshes" : [
        {
            "name" : "Cube",
            "primitives" : [
                {
                    "attributes" : {
                        "POSITION" : 0,
                        "NORMAL" : 1,
                        "TEXCOORD_0" : 2,
                        "COLOR_0" : 3,
                        "JOINTS_0" : 4,
                        "WEIGHTS_0" : 5
                    },
                    "indices" : 6,
                    "material" : 0
                }
            ]
        }
    ],
    "textures" : [
        {
            "sampler" : 0,
            "source" : 0
        }
    ],
    "images" : [
        {
            "bufferView" : 7,
            "mimeType" : "image/png",
            "name" : "Ribbon"
        }
    ],
    "skins" : [
        {
            "inverseBindMatrices" : 7,
            "joints" : [
                5,
                4,
                3,
                2,
                1,
                0
            ],
            "name" : "Armature.002"
        }
    ],
    "accessors" : [
        {
            "bufferView" : 0,
            "componentType" : 5126,
            "count" : 2500,
            "max" : [
                0.9997999668121338,
                0.8399795889854431,
                0.5028630495071411
            ],
            "min" : [
                -2.3930797576904297,
                -0.32966312766075134,
                -0.06200336292386055
            ],
            "type" : "VEC3"
        },
        {
            "bufferView" : 1,
            "componentType" : 5126,
            "count" : 2500,
            "type" : "VEC3"
        },
        {
            "bufferView" : 2,
            "componentType" : 5126,
            "count" : 2500,
            "type" : "VEC2"
        },
        {
            "bufferView" : 3,
            "componentType" : 5123,
            "count" : 2500,
            "normalized" : true,
            "type" : "VEC4"
        },
        {
            "bufferView" : 4,
            "componentType" : 5121,
            "count" : 2500,
            "type" : "VEC4"
        },
        {
            "bufferView" : 5,
            "componentType" : 5126,
            "count" : 2500,
            "type" : "VEC4"
        },
        {
            "bufferView" : 6,
            "componentType" : 5123,
            "count" : 12768,
            "type" : "SCALAR"
        },
        {
            "bufferView" : 8,
            "componentType" : 5126,
            "count" : 6,
            "type" : "MAT4"
        },
        {
            "bufferView" : 9,
            "componentType" : 5126,
            "count" : 126,
            "max" : [
                5.208333333333333
            ],
            "min" : [
                0
            ],
            "type" : "SCALAR"
        },
        {
            "bufferView" : 10,
            "componentType" : 5126,
            "count" : 126,
            "type" : "VEC3"
        },
        {
            "bufferView" : 11,
            "componentType" : 5126,
            "count" : 126,
            "type" : "VEC4"
        },
        {
            "bufferView" : 12,
            "componentType" : 5126,
            "count" : 126,
            "type" : "VEC3"
        },
        {
            "bufferView" : 13,
            "componentType" : 5126,
            "count" : 126,
            "type" : "VEC3"
        },
        {
            "bufferView" : 14,
            "componentType" : 5126,
            "count" : 126,
            "type" : "VEC4"
        },
        {
            "bufferView" : 15,
            "componentType" : 5126,
            "count" : 126,
            "type" : "VEC3"
        },
        {
            "bufferView" : 16,
            "componentType" : 5126,
            "count" : 126,
            "type" : "VEC3"
        },
        {
            "bufferView" : 17,
            "componentType" : 5126,
            "count" : 126,
            "type" : "VEC4"
        },
        {
            "bufferView" : 18,
            "componentType" : 5126,
            "count" : 126,
            "type" : "VEC3"
        },
        {
            "bufferView" : 19,
            "componentType" : 5126,
            "count" : 126,
            "type" : "VEC3"
        },
        {
            "bufferView" : 20,
            "componentType" : 5126,
            "count" : 126,
            "type" : "VEC4"
        },
        {
            "bufferView" : 21,
            "componentType" : 5126,
            "count" : 126,
            "type" : "VEC3"
        },
        {
            "bufferView" : 22,
            "componentType" : 5126,
            "count" : 126,
            "type" : "VEC3"
        },
        {
            "bufferView" : 23,
            "componentType" : 5126,
            "count" : 126,
            "type" : "VEC4"
        },
        {
            "bufferView" : 24,
            "componentType" : 5126,
            "count" : 126,
            "type" : "VEC3"
        },
        {
            "bufferView" : 25,
            "componentType" : 5126,
            "count" : 126,
            "type" : "VEC3"
        },
        {
            "bufferView" : 26,
            "componentType" : 5126,
            "count" : 126,
            "type" : "VEC4"
        },
        {
            "bufferView" : 27,
            "componentType" : 5126,
            "count" : 126,
            "type" : "VEC3"
        }
    ],
    "bufferViews" : [
        {
            "buffer" : 0,
            "byteLength" : 30000,
            "byteOffset" : 0,
            "target" : 34962
        },
        {
            "buffer" : 0,
            "byteLength" : 30000,
            "byteOffset" : 30000,
            "target" : 34962
        },
        {
            "buffer" : 0,
            "byteLength" : 20000,
            "byteOffset" : 60000,
            "target" : 34962
        },
        {
            "buffer" : 0,
            "byteLength" : 20000,
            "byteOffset" : 80000,
            "target" : 34962
        },
        {
            "buffer" : 0,
            "byteLength" : 10000,
            "byteOffset" : 100000,
            "target" : 34962
        },
        {
            "buffer" : 0,
            "byteLength" : 40000,
            "byteOffset" : 110000,
            "target" : 34962
        },
        {
            "buffer" : 0,
            "byteLength" : 25536,
            "byteOffset" : 150000,
            "target" : 34963
        },
        {
            "buffer" : 0,
            "byteLength" : 154137,
            "byteOffset" : 175536
        },
        {
            "buffer" : 0,
            "byteLength" : 384,
            "byteOffset" : 329676
        },
        {
            "buffer" : 0,
            "byteLength" : 504,
            "byteOffset" : 330060
        },
        {
            "buffer" : 0,
            "byteLength" : 1512,
            "byteOffset" : 330564
        },
        {
            "buffer" : 0,
            "byteLength" : 2016,
            "byteOffset" : 332076
        },
        {
            "buffer" : 0,
            "byteLength" : 1512,
            "byteOffset" : 334092
        },
        {
            "buffer" : 0,
            "byteLength" : 1512,
            "byteOffset" : 335604
        },
        {
            "buffer" : 0,
            "byteLength" : 2016,
            "byteOffset" : 337116
        },
        {
            "buffer" : 0,
            "byteLength" : 1512,
            "byteOffset" : 339132
        },
        {
            "buffer" : 0,
            "byteLength" : 1512,
            "byteOffset" : 340644
        },
        {
            "buffer" : 0,
            "byteLength" : 2016,
            "byteOffset" : 342156
        },
        {
            "buffer" : 0,
            "byteLength" : 1512,
            "byteOffset" : 344172
        },
        {
            "buffer" : 0,
            "byteLength" : 1512,
            "byteOffset" : 345684
        },
        {
            "buffer" : 0,
            "byteLength" : 2016,
            "byteOffset" : 347196
        },
        {
            "buffer" : 0,
            "byteLength" : 1512,
            "byteOffset" : 349212
        },
        {
            "buffer" : 0,
            "byteLength" : 1512,
            "byteOffset" : 350724
        },
        {
            "buffer" : 0,
            "byteLength" : 2016,
            "byteOffset" : 352236
        },
        {
            "buffer" : 0,
            "byteLength" : 1512,
            "byteOffset" : 354252
        },
        {
            "buffer" : 0,
            "byteLength" : 1512,
            "byteOffset" : 355764
        },
        {
            "buffer" : 0,
            "byteLength" : 2016,
            "byteOffset" : 357276
        },
        {
            "buffer" : 0,
            "byteLength" : 1512,
            "byteOffset" : 359292
        }
    ],
    "samplers" : [
        {
            "magFilter" : 9729,
            "minFilter" : 9987
        }
    ],
    "buffers" : [
        {
            "byteLength" : 360804,
            "uri" : "data:application/octet-stream;base64,"
        }
    ]
}
