{
    "asset" : {
        "generator" : "Khronos glTF Blender I/O v3.3.32",
        "version" : "2.0"
    },
    "scene" : 0,
    "scenes" : [
        {
            "name" : "Scene",
            "nodes" : [
                0
            ]
        }
    ],
    "nodes" : [
        {
            "mesh" : 0,
            "name" : "PinkCoralOne",
            "rotation" : [
                -0.7048074007034302,
                0,
                0,
                0.7093987464904785
            ],
            "scale" : [
                0.5406249761581421,
                0.5406249761581421,
                0.5406249761581421
            ],
            "translation" : [
                -0.2644183039665222,
                0.07225092500448227,
                0.06958363950252533
            ]
        }
    ],
    "animations" : [
        {
            "channels" : [
                {
                    "sampler" : 0,
                    "target" : {
                        "node" : 0,
                        "path" : "translation"
                    }
                },
                {
                    "sampler" : 1,
                    "target" : {
                        "node" : 0,
                        "path" : "rotation"
                    }
                },
                {
                    "sampler" : 2,
                    "target" : {
                        "node" : 0,
                        "path" : "scale"
                    }
                }
            ],
            "name" : "PinkCoralOne",
            "samplers" : [
                {
                    "input" : 4,
                    "interpolation" : "LINEAR",
                    "output" : 5
                },
                {
                    "input" : 4,
                    "interpolation" : "LINEAR",
                    "output" : 6
                },
                {
                    "input" : 4,
                    "interpolation" : "LINEAR",
                    "output" : 7
                }
            ]
        }
    ],
    "materials" : [
        {
            "doubleSided" : true,
            "name" : "Material.002",
            "pbrMetallicRoughness" : {
                "baseColorFactor" : [
                    1,
                    0.25413307547569275,
                    0.7352690696716309,
                    1
                ],
                "metallicFactor" : 0,
                "roughnessFactor" : 0.3272727131843567
            }
        }
    ],
    "meshes" : [
        {
            "name" : "BezierCurve",
            "primitives" : [
                {
                    "attributes" : {
                        "POSITION" : 0,
                        "NORMAL" : 1,
                        "TEXCOORD_0" : 2
                    },
                    "indices" : 3,
                    "material" : 0
                }
            ]
        }
    ],
    "accessors" : [
        {
            "bufferView" : 0,
            "componentType" : 5126,
            "count" : 2951,
            "max" : [
                2.9781851768493652,
                1.969221830368042,
                2.971627712249756
            ],
            "min" : [
                -2.125051736831665,
                -3.045231342315674,
                -0.5916799902915955
            ],
            "type" : "VEC3"
        },
        {
            "bufferView" : 1,
            "componentType" : 5126,
            "count" : 2951,
            "type" : "VEC3"
        },
        {
            "bufferView" : 2,
            "componentType" : 5126,
            "count" : 2951,
            "type" : "VEC2"
        },
        {
            "bufferView" : 3,
            "componentType" : 5123,
            "count" : 16884,
            "type" : "SCALAR"
        },
        {
            "bufferView" : 4,
            "componentType" : 5126,
            "count" : 201,
            "max" : [
                8.333333333333334
            ],
            "min" : [
                0
            ],
            "type" : "SCALAR"
        },
        {
            "bufferView" : 5,
            "componentType" : 5126,
            "count" : 201,
            "type" : "VEC3"
        },
        {
            "bufferView" : 6,
            "componentType" : 5126,
            "count" : 201,
            "type" : "VEC4"
        },
        {
            "bufferView" : 7,
            "componentType" : 5126,
            "count" : 201,
            "type" : "VEC3"
        }
    ],
    "bufferViews" : [
        {
            "buffer" : 0,
            "byteLength" : 35412,
            "byteOffset" : 0,
            "target" : 34962
        },
        {
            "buffer" : 0,
            "byteLength" : 35412,
            "byteOffset" : 35412,
            "target" : 34962
        },
        {
            "buffer" : 0,
            "byteLength" : 23608,
            "byteOffset" : 70824,
            "target" : 34962
        },
        {
            "buffer" : 0,
            "byteLength" : 33768,
            "byteOffset" : 94432,
            "target" : 34963
        },
        {
            "buffer" : 0,
            "byteLength" : 804,
            "byteOffset" : 128200
        },
        {
            "buffer" : 0,
            "byteLength" : 2412,
            "byteOffset" : 129004
        },
        {
            "buffer" : 0,
            "byteLength" : 3216,
            "byteOffset" : 131416
        },
        {
            "buffer" : 0,
            "byteLength" : 2412,
            "byteOffset" : 134632
        }
    ],
    "buffers" : [
        {
            "byteLength" : 137044,
            "uri" : "data:application/octet-stream;base64,"
        }
    ]
}
