{
    "asset" : {
        "generator" : "Khronos glTF Blender I/O v3.3.32",
        "version" : "2.0"
    },
    "scene" : 0,
    "scenes" : [
        {
            "name" : "Scene",
            "nodes" : [
                3,
                4
            ]
        }
    ],
    "nodes" : [
        {
            "name" : "BagArm.L",
            "rotation" : [
                -0.09709586203098297,
                0,
                0.018937820568680763,
                0.9950948357582092
            ],
            "translation" : [
                0.347380667924881,
                2.613236665725708,
                1.224055290222168
            ]
        },
        {
            "name" : "BagArm.R",
            "rotation" : [
                0.13537997007369995,
                -0.004492571111768484,
                -0.019637947902083397,
                0.9905889630317688
            ],
            "scale" : [
                1,
                1.0000001192092896,
                1
            ],
            "translation" : [
                -0.347380667924881,
                2.622164011001587,
                -1.0396722555160522
            ]
        },
        {
            "children" : [
                0,
                1
            ],
            "name" : "MainBody"
        },
        {
            "mesh" : 0,
            "name" : "Sphere",
            "skin" : 0
        },
        {
            "children" : [
                2
            ],
            "name" : "Armature",
            "scale" : [
                0.5416062474250793,
                0.5416062474250793,
                0.5416062474250793
            ]
        }
    ],
    "animations" : [
        {
            "channels" : [
                {
                    "sampler" : 0,
                    "target" : {
                        "node" : 2,
                        "path" : "translation"
                    }
                },
                {
                    "sampler" : 1,
                    "target" : {
                        "node" : 2,
                        "path" : "rotation"
                    }
                },
                {
                    "sampler" : 2,
                    "target" : {
                        "node" : 2,
                        "path" : "scale"
                    }
                },
                {
                    "sampler" : 3,
                    "target" : {
                        "node" : 0,
                        "path" : "translation"
                    }
                },
                {
                    "sampler" : 4,
                    "target" : {
                        "node" : 0,
                        "path" : "rotation"
                    }
                },
                {
                    "sampler" : 5,
                    "target" : {
                        "node" : 0,
                        "path" : "scale"
                    }
                },
                {
                    "sampler" : 6,
                    "target" : {
                        "node" : 1,
                        "path" : "translation"
                    }
                },
                {
                    "sampler" : 7,
                    "target" : {
                        "node" : 1,
                        "path" : "rotation"
                    }
                },
                {
                    "sampler" : 8,
                    "target" : {
                        "node" : 1,
                        "path" : "scale"
                    }
                }
            ],
            "name" : "ArmatureAction",
            "samplers" : [
                {
                    "input" : 7,
                    "interpolation" : "LINEAR",
                    "output" : 8
                },
                {
                    "input" : 7,
                    "interpolation" : "LINEAR",
                    "output" : 9
                },
                {
                    "input" : 7,
                    "interpolation" : "LINEAR",
                    "output" : 10
                },
                {
                    "input" : 7,
                    "interpolation" : "LINEAR",
                    "output" : 11
                },
                {
                    "input" : 7,
                    "interpolation" : "LINEAR",
                    "output" : 12
                },
                {
                    "input" : 7,
                    "interpolation" : "LINEAR",
                    "output" : 13
                },
                {
                    "input" : 7,
                    "interpolation" : "LINEAR",
                    "output" : 14
                },
                {
                    "input" : 7,
                    "interpolation" : "LINEAR",
                    "output" : 15
                },
                {
                    "input" : 7,
                    "interpolation" : "LINEAR",
                    "output" : 16
                }
            ]
        }
    ],
    "materials" : [
        {
            "doubleSided" : true,
            "name" : "Bag",
            "pbrMetallicRoughness" : {}
        }
    ],
    "meshes" : [
        {
            "name" : "Sphere",
            "primitives" : [
                {
                    "attributes" : {
                        "POSITION" : 0,
                        "NORMAL" : 1,
                        "TEXCOORD_0" : 2,
                        "JOINTS_0" : 3,
                        "WEIGHTS_0" : 4
                    },
                    "indices" : 5,
                    "material" : 0
                }
            ]
        }
    ],
    "skins" : [
        {
            "inverseBindMatrices" : 6,
            "joints" : [
                2,
                0,
                1
            ],
            "name" : "Armature"
        }
    ],
    "accessors" : [
        {
            "bufferView" : 0,
            "componentType" : 5126,
            "count" : 964,
            "max" : [
                0.7608109712600708,
                2.1207361221313477,
                0.7986642122268677
            ],
            "min" : [
                -0.5967929363250732,
                -0.023097515106201172,
                -0.6633626818656921
            ],
            "type" : "VEC3"
        },
        {
            "bufferView" : 1,
            "componentType" : 5126,
            "count" : 964,
            "type" : "VEC3"
        },
        {
            "bufferView" : 2,
            "componentType" : 5126,
            "count" : 964,
            "type" : "VEC2"
        },
        {
            "bufferView" : 3,
            "componentType" : 5121,
            "count" : 964,
            "type" : "VEC4"
        },
        {
            "bufferView" : 4,
            "componentType" : 5126,
            "count" : 964,
            "type" : "VEC4"
        },
        {
            "bufferView" : 5,
            "componentType" : 5123,
            "count" : 4680,
            "type" : "SCALAR"
        },
        {
            "bufferView" : 6,
            "componentType" : 5126,
            "count" : 3,
            "type" : "MAT4"
        },
        {
            "bufferView" : 7,
            "componentType" : 5126,
            "count" : 161,
            "max" : [
                6.666666666666667
            ],
            "min" : [
                0
            ],
            "type" : "SCALAR"
        },
        {
            "bufferView" : 8,
            "componentType" : 5126,
            "count" : 161,
            "type" : "VEC3"
        },
        {
            "bufferView" : 9,
            "componentType" : 5126,
            "count" : 161,
            "type" : "VEC4"
        },
        {
            "bufferView" : 10,
            "componentType" : 5126,
            "count" : 161,
            "type" : "VEC3"
        },
        {
            "bufferView" : 11,
            "componentType" : 5126,
            "count" : 161,
            "type" : "VEC3"
        },
        {
            "bufferView" : 12,
            "componentType" : 5126,
            "count" : 161,
            "type" : "VEC4"
        },
        {
            "bufferView" : 13,
            "componentType" : 5126,
            "count" : 161,
            "type" : "VEC3"
        },
        {
            "bufferView" : 14,
            "componentType" : 5126,
            "count" : 161,
            "type" : "VEC3"
        },
        {
            "bufferView" : 15,
            "componentType" : 5126,
            "count" : 161,
            "type" : "VEC4"
        },
        {
            "bufferView" : 16,
            "componentType" : 5126,
            "count" : 161,
            "type" : "VEC3"
        }
    ],
    "bufferViews" : [
        {
            "buffer" : 0,
            "byteLength" : 11568,
            "byteOffset" : 0,
            "target" : 34962
        },
        {
            "buffer" : 0,
            "byteLength" : 11568,
            "byteOffset" : 11568,
            "target" : 34962
        },
        {
            "buffer" : 0,
            "byteLength" : 7712,
            "byteOffset" : 23136,
            "target" : 34962
        },
        {
            "buffer" : 0,
            "byteLength" : 3856,
            "byteOffset" : 30848,
            "target" : 34962
        },
        {
            "buffer" : 0,
            "byteLength" : 15424,
            "byteOffset" : 34704,
            "target" : 34962
        },
        {
            "buffer" : 0,
            "byteLength" : 9360,
            "byteOffset" : 50128,
            "target" : 34963
        },
        {
            "buffer" : 0,
            "byteLength" : 192,
            "byteOffset" : 59488
        },
        {
            "buffer" : 0,
            "byteLength" : 644,
            "byteOffset" : 59680
        },
        {
            "buffer" : 0,
            "byteLength" : 1932,
            "byteOffset" : 60324
        },
        {
            "buffer" : 0,
            "byteLength" : 2576,
            "byteOffset" : 62256
        },
        {
            "buffer" : 0,
            "byteLength" : 1932,
            "byteOffset" : 64832
        },
        {
            "buffer" : 0,
            "byteLength" : 1932,
            "byteOffset" : 66764
        },
        {
            "buffer" : 0,
            "byteLength" : 2576,
            "byteOffset" : 68696
        },
        {
            "buffer" : 0,
            "byteLength" : 1932,
            "byteOffset" : 71272
        },
        {
            "buffer" : 0,
            "byteLength" : 1932,
            "byteOffset" : 73204
        },
        {
            "buffer" : 0,
            "byteLength" : 2576,
            "byteOffset" : 75136
        },
        {
            "buffer" : 0,
            "byteLength" : 1932,
            "byteOffset" : 77712
        }
    ],
    "buffers" : [
        {
            "byteLength" : 79644,
            "uri" : "data:application/octet-stream;base64,"
        }
    ]
}
