{
    "asset" : {
        "generator" : "Khronos glTF Blender I/O v3.3.32",
        "version" : "2.0"
    },
    "scene" : 0,
    "scenes" : [
        {
            "name" : "Scene",
            "nodes" : [
                3,
                4
            ]
        }
    ],
    "nodes" : [
        {
            "name" : "BagArm.L",
            "rotation" : [
                -0.09709586203098297,
                0,
                0.018937820568680763,
                0.9950948357582092
            ],
            "translation" : [
                0.347380667924881,
                2.613236665725708,
                1.224055290222168
            ]
        },
        {
            "name" : "BagArm.R",
            "rotation" : [
                0.13537997007369995,
                -0.004492571111768484,
                -0.019637947902083397,
                0.9905889630317688
            ],
            "scale" : [
                1,
                1.0000001192092896,
                1
            ],
            "translation" : [
                -0.347380667924881,
                2.622164011001587,
                -1.0396722555160522
            ]
        },
        {
            "children" : [
                0,
                1
            ],
            "name" : "MainBody"
        },
        {
            "mesh" : 0,
            "name" : "Sphere",
            "skin" : 0
        },
        {
            "children" : [
                2
            ],
            "name" : "Armature",
            "scale" : [
                0.5416062474250793,
                0.5416062474250793,
                0.5416062474250793
            ]
        }
    ],
    "animations" : [
        {
            "channels" : [
                {
                    "sampler" : 0,
                    "target" : {
                        "node" : 2,
                        "path" : "translation"
                    }
                },
                {
                    "sampler" : 1,
                    "target" : {
                        "node" : 2,
                        "path" : "rotation"
                    }
                },
                {
                    "sampler" : 2,
                    "target" : {
                        "node" : 2,
                        "path" : "scale"
                    }
                },
                {
                    "sampler" : 3,
                    "target" : {
                        "node" : 0,
                        "path" : "translation"
                    }
                },
                {
                    "sampler" : 4,
                    "target" : {
                        "node" : 0,
                        "path" : "rotation"
                    }
                },
                {
                    "sampler" : 5,
                    "target" : {
                        "node" : 0,
                        "path" : "scale"
                    }
                },
                {
                    "sampler" : 6,
                    "target" : {
                        "node" : 1,
                        "path" : "translation"
                    }
                },
                {
                    "sampler" : 7,
                    "target" : {
                        "node" : 1,
                        "path" : "rotation"
                    }
                },
                {
                    "sampler" : 8,
                    "target" : {
                        "node" : 1,
                        "path" : "scale"
                    }
                }
            ],
            "name" : "ArmatureAction",
            "samplers" : [
                {
                    "input" : 7,
                    "interpolation" : "LINEAR",
                    "output" : 8
                },
                {
                    "input" : 7,
                    "interpolation" : "LINEAR",
                    "output" : 9
                },
                {
                    "input" : 7,
                    "interpolation" : "LINEAR",
                    "output" : 10
                },
                {
                    "input" : 7,
                    "interpolation" : "LINEAR",
                    "output" : 11
                },
                {
                    "input" : 7,
                    "interpolation" : "LINEAR",
                    "output" : 12
                },
                {
                    "input" : 7,
                    "interpolation" : "LINEAR",
                    "output" : 13
                },
                {
                    "input" : 7,
                    "interpolation" : "LINEAR",
                    "output" : 14
                },
                {
                    "input" : 7,
                    "interpolation" : "LINEAR",
                    "output" : 15
                },
                {
                    "input" : 7,
                    "interpolation" : "LINEAR",
                    "output" : 16
                }
            ]
        }
    ],
    "materials" : [
        {
            "doubleSided" : true,
            "name" : "Bag",
            "pbrMetallicRoughness" : {
                "baseColorTexture" : {
                    "index" : 0
                },
                "metallicFactor" : 0,
                "roughnessFactor" : 0.1818181872367859
            }
        }
    ],
    "meshes" : [
        {
            "name" : "Sphere",
            "primitives" : [
                {
                    "attributes" : {
                        "POSITION" : 0,
                        "NORMAL" : 1,
                        "TEXCOORD_0" : 2,
                        "JOINTS_0" : 3,
                        "WEIGHTS_0" : 4
                    },
                    "indices" : 5,
                    "material" : 0
                }
            ]
        }
    ],
    "textures" : [
        {
            "sampler" : 0,
            "source" : 0
        }
    ],
    "images" : [
        {
            "bufferView" : 6,
            "mimeType" : "image/png",
            "name" : "Bag"
        }
    ],
    "skins" : [
        {
            "inverseBindMatrices" : 6,
            "joints" : [
                2,
                0,
                1
            ],
            "name" : "Armature"
        }
    ],
    "accessors" : [
        {
            "bufferView" : 0,
            "componentType" : 5126,
            "count" : 3538,
            "max" : [
                0.7447519898414612,
                2.089393377304077,
                0.7464972138404846
            ],
            "min" : [
                -0.5924739837646484,
                -0.006358504295349121,
                -0.6383552551269531
            ],
            "type" : "VEC3"
        },
        {
            "bufferView" : 1,
            "componentType" : 5126,
            "count" : 3538,
            "type" : "VEC3"
        },
        {
            "bufferView" : 2,
            "componentType" : 5126,
            "count" : 3538,
            "type" : "VEC2"
        },
        {
            "bufferView" : 3,
            "componentType" : 5121,
            "count" : 3538,
            "type" : "VEC4"
        },
        {
            "bufferView" : 4,
            "componentType" : 5126,
            "count" : 3538,
            "type" : "VEC4"
        },
        {
            "bufferView" : 5,
            "componentType" : 5123,
            "count" : 19104,
            "type" : "SCALAR"
        },
        {
            "bufferView" : 7,
            "componentType" : 5126,
            "count" : 3,
            "type" : "MAT4"
        },
        {
            "bufferView" : 8,
            "componentType" : 5126,
            "count" : 161,
            "max" : [
                6.666666666666667
            ],
            "min" : [
                0
            ],
            "type" : "SCALAR"
        },
        {
            "bufferView" : 9,
            "componentType" : 5126,
            "count" : 161,
            "type" : "VEC3"
        },
        {
            "bufferView" : 10,
            "componentType" : 5126,
            "count" : 161,
            "type" : "VEC4"
        },
        {
            "bufferView" : 11,
            "componentType" : 5126,
            "count" : 161,
            "type" : "VEC3"
        },
        {
            "bufferView" : 12,
            "componentType" : 5126,
            "count" : 161,
            "type" : "VEC3"
        },
        {
            "bufferView" : 13,
            "componentType" : 5126,
            "count" : 161,
            "type" : "VEC4"
        },
        {
            "bufferView" : 14,
            "componentType" : 5126,
            "count" : 161,
            "type" : "VEC3"
        },
        {
            "bufferView" : 15,
            "componentType" : 5126,
            "count" : 161,
            "type" : "VEC3"
        },
        {
            "bufferView" : 16,
            "componentType" : 5126,
            "count" : 161,
            "type" : "VEC4"
        },
        {
            "bufferView" : 17,
            "componentType" : 5126,
            "count" : 161,
            "type" : "VEC3"
        }
    ],
    "bufferViews" : [
        {
            "buffer" : 0,
            "byteLength" : 42456,
            "byteOffset" : 0,
            "target" : 34962
        },
        {
            "buffer" : 0,
            "byteLength" : 42456,
            "byteOffset" : 42456,
            "target" : 34962
        },
        {
            "buffer" : 0,
            "byteLength" : 28304,
            "byteOffset" : 84912,
            "target" : 34962
        },
        {
            "buffer" : 0,
            "byteLength" : 14152,
            "byteOffset" : 113216,
            "target" : 34962
        },
        {
            "buffer" : 0,
            "byteLength" : 56608,
            "byteOffset" : 127368,
            "target" : 34962
        },
        {
            "buffer" : 0,
            "byteLength" : 38208,
            "byteOffset" : 183976,
            "target" : 34963
        },
        {
            "buffer" : 0,
            "byteLength" : 64652,
            "byteOffset" : 222184
        },
        {
            "buffer" : 0,
            "byteLength" : 192,
            "byteOffset" : 286836
        },
        {
            "buffer" : 0,
            "byteLength" : 644,
            "byteOffset" : 287028
        },
        {
            "buffer" : 0,
            "byteLength" : 1932,
            "byteOffset" : 287672
        },
        {
            "buffer" : 0,
            "byteLength" : 2576,
            "byteOffset" : 289604
        },
        {
            "buffer" : 0,
            "byteLength" : 1932,
            "byteOffset" : 292180
        },
        {
            "buffer" : 0,
            "byteLength" : 1932,
            "byteOffset" : 294112
        },
        {
            "buffer" : 0,
            "byteLength" : 2576,
            "byteOffset" : 296044
        },
        {
            "buffer" : 0,
            "byteLength" : 1932,
            "byteOffset" : 298620
        },
        {
            "buffer" : 0,
            "byteLength" : 1932,
            "byteOffset" : 300552
        },
        {
            "buffer" : 0,
            "byteLength" : 2576,
            "byteOffset" : 302484
        },
        {
            "buffer" : 0,
            "byteLength" : 1932,
            "byteOffset" : 305060
        }
    ],
    "samplers" : [
        {
            "magFilter" : 9729,
            "minFilter" : 9987
        }
    ],
    "buffers" : [
        {
            "byteLength" : 306992,
            "uri" : "data:application/octet-stream;base64,"
        }
    ]
}
