{
    "asset" : {
        "generator" : "Khronos glTF Blender I/O v3.3.32",
        "version" : "2.0"
    },
    "extensionsUsed" : [
        "KHR_materials_specular",
        "KHR_materials_ior"
    ],
    "scene" : 0,
    "scenes" : [
        {
            "name" : "Scene",
            "nodes" : [
                0,
                1,
                2
            ]
        }
    ],
    "nodes" : [
        {
            "mesh" : 0,
            "name" : "Plane",
            "scale" : [
                4.218578338623047,
                4.218578338623047,
                4.218578338623047
            ]
        },
        {
            "mesh" : 1,
            "name" : "BezierCurve",
            "rotation" : [
                0.27083441615104675,
                -0.11265803873538971,
                -0.6087128520011902,
                0.7371740341186523
            ],
            "translation" : [
                -2.995882511138916,
                0.718034029006958,
                2.999751329421997
            ]
        },
        {
            "name" : "BezierCircle",
            "translation" : [
                0,
                0.29185062646865845,
                0
            ]
        }
    ],
    "materials" : [
        {
            "doubleSided" : true,
            "extensions" : {
                "KHR_materials_specular" : {
                    "specularColorFactor" : [
                        0,
                        0,
                        0
                    ]
                },
                "KHR_materials_ior" : {
                    "ior" : 1.4500000476837158
                }
            },
            "name" : "Sand",
            "normalTexture" : {
                "index" : 0
            },
            "pbrMetallicRoughness" : {
                "baseColorTexture" : {
                    "index" : 1
                },
                "metallicFactor" : 0
            }
        },
        {
            "doubleSided" : true,
            "extensions" : {
                "KHR_materials_specular" : {
                    "specularColorFactor" : [
                        2.371357614441398,
                        2.371357614441398,
                        2.371357614441398
                    ]
                },
                "KHR_materials_ior" : {
                    "ior" : 1.4500000476837158
                }
            },
            "name" : "SeaWeed",
            "pbrMetallicRoughness" : {
                "baseColorTexture" : {
                    "index" : 2
                },
                "metallicFactor" : 0
            }
        }
    ],
    "meshes" : [
        {
            "name" : "Plane",
            "primitives" : [
                {
                    "attributes" : {
                        "POSITION" : 0,
                        "NORMAL" : 1,
                        "TEXCOORD_0" : 2
                    },
                    "indices" : 3,
                    "material" : 0
                }
            ]
        },
        {
            "name" : "BezierCurve",
            "primitives" : [
                {
                    "attributes" : {
                        "POSITION" : 4,
                        "NORMAL" : 5,
                        "TEXCOORD_0" : 6
                    },
                    "indices" : 7,
                    "material" : 1
                }
            ]
        }
    ],
    "textures" : [
        {
            "sampler" : 0,
            "source" : 0
        },
        {
            "sampler" : 0,
            "source" : 0
        },
        {
            "sampler" : 0,
            "source" : 1
        }
    ],
    "images" : [
        {
            "bufferView" : 4,
            "mimeType" : "image/png",
            "name" : "Sand"
        },
        {
            "bufferView" : 9,
            "mimeType" : "image/png",
            "name" : "SeaWeed"
        }
    ],
    "accessors" : [
        {
            "bufferView" : 0,
            "componentType" : 5126,
            "count" : 289,
            "max" : [
                1.0001051425933838,
                0.09759819507598877,
                1.010440468788147
            ],
            "min" : [
                -1.0004552602767944,
                -0.036793146282434464,
                -1.000603437423706
            ],
            "type" : "VEC3"
        },
        {
            "bufferView" : 1,
            "componentType" : 5126,
            "count" : 289,
            "type" : "VEC3"
        },
        {
            "bufferView" : 2,
            "componentType" : 5126,
            "count" : 289,
            "type" : "VEC2"
        },
        {
            "bufferView" : 3,
            "componentType" : 5123,
            "count" : 1536,
            "type" : "SCALAR"
        },
        {
            "bufferView" : 5,
            "componentType" : 5126,
            "count" : 8927,
            "max" : [
                0.6970441341400146,
                1.3299793004989624,
                0.25373387336730957
            ],
            "min" : [
                -2.61470890045166,
                -1.1508984565734863,
                -0.8998372554779053
            ],
            "type" : "VEC3"
        },
        {
            "bufferView" : 6,
            "componentType" : 5126,
            "count" : 8927,
            "type" : "VEC3"
        },
        {
            "bufferView" : 7,
            "componentType" : 5126,
            "count" : 8927,
            "type" : "VEC2"
        },
        {
            "bufferView" : 8,
            "componentType" : 5123,
            "count" : 15288,
            "type" : "SCALAR"
        }
    ],
    "bufferViews" : [
        {
            "buffer" : 0,
            "byteLength" : 3468,
            "byteOffset" : 0,
            "target" : 34962
        },
        {
            "buffer" : 0,
            "byteLength" : 3468,
            "byteOffset" : 3468,
            "target" : 34962
        },
        {
            "buffer" : 0,
            "byteLength" : 2312,
            "byteOffset" : 6936,
            "target" : 34962
        },
        {
            "buffer" : 0,
            "byteLength" : 3072,
            "byteOffset" : 9248,
            "target" : 34963
        },
        {
            "buffer" : 0,
            "byteLength" : 243608,
            "byteOffset" : 12320
        },
        {
            "buffer" : 0,
            "byteLength" : 107124,
            "byteOffset" : 255928,
            "target" : 34962
        },
        {
            "buffer" : 0,
            "byteLength" : 107124,
            "byteOffset" : 363052,
            "target" : 34962
        },
        {
            "buffer" : 0,
            "byteLength" : 71416,
            "byteOffset" : 470176,
            "target" : 34962
        },
        {
            "buffer" : 0,
            "byteLength" : 30576,
            "byteOffset" : 541592,
            "target" : 34963
        },
        {
            "buffer" : 0,
            "byteLength" : 1354605,
            "byteOffset" : 572168
        }
    ],
    "samplers" : [
        {
            "magFilter" : 9729,
            "minFilter" : 9987
        }
    ],
    "buffers" : [
        {
            "byteLength" : 1926776,
            "uri" : "data:application/octet-stream;base64,"
        }
    ]
}
